<?xml version="1.0"?>
<svg xmlns="http://www.w3.org/2000/svg" xmlns:xlink="http://www.w3.org/1999/xlink" xmlns:svgjs="http://svgjs.com/svgjs" version="1.1" width="512" height="512" x="0" y="0" viewBox="0 0 480.014 480.014" style="enable-background:new 0 0 512 512" xml:space="preserve"><g>
<circle xmlns="http://www.w3.org/2000/svg" style="" cx="240" cy="240.007" r="232" fill="#4398d1" data-original="#4398d1"/>
<circle xmlns="http://www.w3.org/2000/svg" style="" cx="240" cy="240.007" r="144" fill="#3570ab" data-original="#3570ab"/>
<path xmlns="http://www.w3.org/2000/svg" style="" d="M240,8.007c-128.13,0-232,103.87-232,232s103.87,232,232,232s232-103.87,232-232  S368.13,8.007,240,8.007z M56,200.007c0-30.928,25.072-56,56-56s56,25.072,56,56s-25.072,56-56,56S56,230.935,56,200.007L56,200.007  z M160,408.007c-30.928,0-56-25.072-56-56s25.072-56,56-56s56,25.072,56,56S190.928,408.007,160,408.007z M184,104.007  c0-30.928,25.072-56,56-56s56,25.072,56,56s-25.072,56-56,56S184,134.935,184,104.007z M320,408.007c-30.928,0-56-25.072-56-56  s25.072-56,56-56s56,25.072,56,56S350.928,408.007,320,408.007z M376,256.007c-30.928,0-56-25.072-56-56s25.072-56,56-56  s56,25.072,56,56S406.928,256.007,376,256.007L376,256.007z" fill="#87ced9" data-original="#87ced9"/>
<path xmlns="http://www.w3.org/2000/svg" style="" d="M240,280.007c-22.091,0-40-17.909-40-40s17.909-40,40-40s40,17.909,40,40  C279.974,262.087,262.08,279.981,240,280.007z M240,216.007c-13.255,0-24,10.745-24,24c0,13.255,10.745,24,24,24  c13.255,0,24-10.745,24-24C264,226.752,253.255,216.007,240,216.007z" fill="#3e8cc7" data-original="#3e8cc7"/>
<path xmlns="http://www.w3.org/2000/svg" style="" d="M240,472.007h232v-80h-56.8C371.201,442.867,307.251,472.068,240,472.007z" fill="#3570ab" data-original="#3570ab"/>
<path xmlns="http://www.w3.org/2000/svg" style="" d="M419.72,93.327c-6.92,13.344-14.24,25.92-21.728,38.128c37.883,12.088,58.793,52.597,46.705,90.48  c-12.088,37.883-52.597,58.793-90.48,46.705c-16.768-5.351-30.995-16.658-39.993-31.785c-28.846,28.168-60.782,52.987-95.2,73.984  c22.866,32.533,15.029,77.442-17.504,100.308s-77.442,15.029-100.308-17.504c-5.235-7.448-9.01-15.821-11.124-24.676  c-12.28,3.888-24.304,7.424-35.632,10.312c76.686,102.647,222.065,123.693,324.713,47.006s123.693-222.065,47.006-324.713  C424.086,98.776,421.934,96.027,419.72,93.327z M320,424.007c-39.764,0-72-32.236-72-72s32.236-72,72-72s72,32.236,72,72l0,0  C392,391.772,359.764,424.007,320,424.007z" fill="#78c3cf" data-original="#78c3cf"/>
<path xmlns="http://www.w3.org/2000/svg" d="M240,0.007c-132.548,0-240,107.452-240,240s107.452,240,240,240h232c4.418,0,8-3.582,8-8v-80c0-4.418-3.582-8-8-8h-40.128  c79.6-105.897,58.281-256.272-47.616-335.872C342.663,16.871,292.033-0.021,240,0.007z M16,240.007  C15.891,116.295,116.091,15.919,239.802,15.81S463.891,115.9,464,239.612c0.049,55.311-20.368,108.685-57.32,149.843  c-0.8,0.872-1.6,1.728-2.4,2.584c-1.776,1.92-3.568,3.816-5.408,5.672c-0.712,0.72-1.448,1.416-2.176,2.128  c-1.96,1.92-3.928,3.832-5.96,5.688c-0.528,0.472-1.072,0.928-1.6,1.408c-6.661,5.946-13.668,11.491-20.984,16.608  c-1.112,0.8-2.2,1.6-3.32,2.344c-1.488,1-3.024,1.944-4.536,2.912c-1.768,1.128-3.52,2.264-5.32,3.344  c-1.264,0.76-2.56,1.472-3.848,2.208c-2.12,1.216-4.24,2.4-6.4,3.568c-1.096,0.584-2.208,1.136-3.304,1.696  c-2.4,1.232-4.856,2.4-7.312,3.576c-0.944,0.44-1.896,0.864-2.84,1.288c-2.672,1.192-5.368,2.344-8.08,3.432l-2.448,0.968  c-2.901,1.12-5.835,2.187-8.8,3.2c-0.688,0.232-1.376,0.472-2.072,0.696c-3.083,1.019-6.189,1.965-9.32,2.84  c-0.624,0.176-1.24,0.36-1.864,0.528c-3.2,0.872-6.4,1.656-9.64,2.4c-0.608,0.136-1.2,0.288-1.808,0.416  c-3.2,0.704-6.496,1.312-9.776,1.864c-0.624,0.112-1.248,0.24-1.88,0.344c-3.2,0.512-6.4,0.936-9.68,1.312  c-0.72,0.08-1.424,0.2-2.144,0.272c-3.2,0.344-6.4,0.576-9.6,0.8c-0.8,0.048-1.536,0.136-2.312,0.176  c-3.915,0.187-7.864,0.28-11.848,0.28C116.347,463.866,16.141,363.66,16,240.007L16,240.007z M418.8,400.007H464v64H326.096  c0.448-0.176,0.88-0.384,1.328-0.56c3.424-1.344,6.808-2.76,10.152-4.248l2.92-1.328c3.099-1.429,6.155-2.928,9.168-4.496  c1.016-0.52,2.04-1.024,3.048-1.6c3.312-1.765,6.579-3.613,9.8-5.544c0.6-0.36,1.216-0.68,1.816-1.04  c3.536-2.152,7.008-4.408,10.4-6.736c1.696-1.152,3.352-2.4,5.024-3.576s3.512-2.528,5.232-3.84  c1.864-1.408,3.688-2.864,5.512-4.328c1.456-1.176,2.888-2.4,4.312-3.576c1.896-1.6,3.776-3.2,5.6-4.864  c1.248-1.12,2.448-2.28,3.672-3.424c4.171-3.92,8.216-7.989,12.136-12.208c0.448-0.48,0.92-0.944,1.36-1.432  S418.4,400.431,418.8,400.007L418.8,400.007z" fill="#000000" data-original="#000000" style=""/>
<path xmlns="http://www.w3.org/2000/svg" d="M312.864,189.999c-0.096,0.568-0.184,1.128-0.264,1.696c-0.378,2.755-0.579,5.531-0.6,8.312c0.04,35.33,28.67,63.96,64,64  c2.719-0.018,5.434-0.21,8.128-0.576h0.064c35.084-4.301,60.038-36.228,55.738-71.311s-36.228-60.038-71.311-55.738  c-6.932,0.85-13.678,2.828-19.97,5.857c-0.056,0-0.112,0-0.16,0.048s-0.24,0.152-0.368,0.208c-5.259,2.545-10.145,5.799-14.52,9.672  l-0.424,0.384c-8.833,7.947-15.279,18.197-18.616,29.6v0.072C313.827,184.776,313.261,187.373,312.864,189.999L312.864,189.999z   M328.36,194.359c0.048-0.4,0.128-0.8,0.184-1.184c0.218-1.553,0.517-3.094,0.896-4.616c0.064-0.277,0.136-0.557,0.216-0.84  c3.082-11.445,10.255-21.362,20.16-27.872c17.11,23.215,26.291,51.321,26.184,80.16c0,2.64-0.088,5.28-0.248,8  c-0.864,0-1.712-0.08-2.568-0.128c-0.728-0.04-1.472-0.048-2.192-0.12c-0.912-0.096-1.8-0.264-2.696-0.416  c-0.688-0.112-1.376-0.184-2.048-0.32c-0.896-0.184-1.76-0.448-2.64-0.68c-0.648-0.176-1.312-0.312-1.944-0.512  c-0.848-0.264-1.656-0.6-2.472-0.904c-0.648-0.24-1.304-0.448-1.936-0.72c-0.8-0.328-1.528-0.728-2.296-1.104  c-0.624-0.312-1.272-0.584-1.888-0.92s-1.392-0.848-2.088-1.272s-1.264-0.736-1.864-1.144s-1.232-0.92-1.856-1.384  s-1.24-0.896-1.832-1.384s-1.104-1-1.656-1.504s-1.192-1.032-1.744-1.6s-0.976-1.08-1.472-1.6s-1.104-1.168-1.6-1.792  s-0.856-1.152-1.288-1.72s-1.008-1.296-1.464-1.976s-0.8-1.272-1.16-1.904s-0.856-1.344-1.24-2.048s-0.632-1.304-0.944-1.96  s-0.752-1.472-1.072-2.232s-0.504-1.376-0.76-2.064s-0.608-1.536-0.856-2.336s-0.472-1.816-0.704-2.728  c-0.152-0.624-0.344-1.224-0.472-1.856c-0.208-1.016-0.336-2.056-0.472-3.096c-0.08-0.552-0.2-1.096-0.256-1.656  c-0.365-3.507-0.327-7.045,0.112-10.544L328.36,194.359z M424,200.007c-0.035,20.375-12.918,38.512-32.144,45.256  c0.064-1.76,0.144-3.512,0.144-5.256c-0.05-30.966-9.539-61.181-27.2-86.616c25.649-6.287,51.538,9.408,57.825,35.057  C423.553,192.23,424.014,196.112,424,200.007z" fill="#000000" data-original="#000000" style=""/>
<path xmlns="http://www.w3.org/2000/svg" d="M233.848,167.695c0.672,0.064,1.368,0.056,2.04,0.104c1.368,0.088,2.728,0.208,4.112,0.208h0.168  c33.887-0.032,61.875-26.474,63.832-60.304c-0.009-0.389-0.047-0.777-0.112-1.16c0-0.848,0.128-1.68,0.128-2.536  c0.009-35.346-28.638-64.007-63.984-64.016c-35.346-0.009-64.007,28.638-64.016,63.984c-0.008,32.969,25.031,60.55,57.848,63.719  L233.848,167.695z M287.024,113.663c-0.374,1.76-0.844,3.499-1.408,5.208c-0.368,1.136-0.8,2.256-1.224,3.352  c-0.648,1.587-1.379,3.139-2.192,4.648c-0.584,1.064-1.232,2.08-1.888,3.096s-1.248,1.832-1.912,2.72  c-1.029,1.376-2.132,2.696-3.304,3.952c-0.8,0.8-1.6,1.6-2.4,2.4c-1.064,0.992-2.16,1.944-3.312,2.832s-2.4,1.76-3.6,2.552  c-0.8,0.536-1.664,1.056-2.528,1.536c-1.727,0.959-3.511,1.808-5.344,2.544c-0.752,0.304-1.528,0.576-2.304,0.84  c-2.061,0.726-4.17,1.309-6.312,1.744c-0.52,0.104-1.056,0.152-1.6,0.24c-2.427,0.408-4.883,0.63-7.344,0.664h-0.272  c-2.779-0.004-5.553-0.253-8.288-0.744l-0.384-0.056c-19.635-3.673-34.95-19.112-38.464-38.776  c30.426-11.153,63.82-11.167,94.256-0.04C287.144,112.807,287.112,113.239,287.024,113.663L287.024,113.663z M240,56.007  c23.234,0.025,43.115,16.688,47.2,39.56c-30.696-9.892-63.73-9.85-94.4,0.12C196.855,72.779,216.736,56.065,240,56.007L240,56.007z" fill="#000000" data-original="#000000" style=""/>
<path xmlns="http://www.w3.org/2000/svg" d="M280,240.007c0-22.091-17.909-40-40-40s-40,17.909-40,40s17.909,40,40,40C262.08,279.981,279.974,262.087,280,240.007z   M240,264.007c-13.255,0-24-10.745-24-24c0-13.255,10.745-24,24-24c13.255,0,24,10.745,24,24  C264,253.262,253.255,264.007,240,264.007z" fill="#000000" data-original="#000000" style=""/>
<path xmlns="http://www.w3.org/2000/svg" d="M103.688,263.407c2.755,0.378,5.531,0.579,8.312,0.6h0.168c35.33-0.04,63.96-28.67,64-64c0-1.952-0.288-3.848-0.456-5.76  c0-0.36-0.048-0.72-0.088-1.072c-0.216-2.032-0.512-4-0.92-6l-0.064-0.288c-0.791-3.704-1.907-7.332-3.336-10.84  c-0.208-0.512-0.416-1.032-0.64-1.544c-2.257-5.166-5.192-10.009-8.728-14.4c-0.472-0.584-0.952-1.152-1.44-1.712  c-1.791-2.078-3.715-4.036-5.76-5.864c-0.84-0.8-1.672-1.528-2.56-2.24c-1.12-0.904-2.264-1.76-3.456-2.592  c-1.68-1.176-3.416-2.28-5.208-3.296c-0.936-0.536-1.896-1.032-2.864-1.52c-2.155-1.078-4.369-2.035-6.632-2.864  c-0.4-0.144-0.752-0.36-1.16-0.496c-0.132-0.032-0.265-0.057-0.4-0.072c-33.421-11.411-69.764,6.433-81.175,39.854  s6.433,69.764,39.854,81.175c3.869,1.321,7.856,2.268,11.905,2.828L103.688,263.407z M133.968,157.375  c0.88,0.456,1.728,0.96,2.576,1.456c2.033,1.191,3.976,2.528,5.816,4l0.176,0.136c1.173,0.976,2.299,2,3.376,3.072  c18.76,18.73,18.784,49.122,0.054,67.882c-8.978,8.992-21.155,14.058-33.862,14.086c-2.587-0.001-5.17-0.22-7.72-0.656  c-0.152-2.536-0.216-4.968-0.216-7.336c0.034-30.129,10.071-59.393,28.536-83.2L133.968,157.375z M64,200.007  c0.026-26.499,21.501-47.974,48-48c1.408,0,2.8,0.088,4.184,0.208c-18.198,25.66-27.987,56.334-28.016,87.792v1.6  C73.243,233.07,64.024,217.202,64,200.007z" fill="#000000" data-original="#000000" style=""/>
<path xmlns="http://www.w3.org/2000/svg" d="M368.496,310.311c-0.304-0.352-0.648-0.656-0.96-1.008c-1.064-1.176-2.144-2.328-3.288-3.424  c-0.544-0.52-1.104-1.016-1.664-1.52c-1.08-0.96-2.184-1.896-3.328-2.792c-0.624-0.48-1.248-0.952-1.88-1.408  c-1.168-0.8-2.352-1.6-3.568-2.4c-0.648-0.408-1.296-0.8-1.952-1.192c-1.28-0.736-2.6-1.416-3.936-2.072  c-0.632-0.304-1.256-0.624-1.904-0.912c-1.424-0.64-2.888-1.2-4.368-1.736c-0.592-0.216-1.176-0.456-1.776-0.648  c-1.6-0.512-3.2-0.936-4.8-1.328c-0.552-0.136-1.096-0.304-1.656-0.424c-1.696-0.368-3.424-0.624-5.168-0.856  c-0.496-0.064-0.984-0.168-1.48-0.224c-2.248-0.237-4.507-0.357-6.768-0.36c-35.33,0.04-63.96,28.67-64,64  c0.014,2.611,0.19,5.219,0.528,7.808c0.072,0.6,0.176,1.184,0.272,1.776c0.324,2.154,0.757,4.29,1.296,6.4  c0.112,0.432,0.216,0.864,0.336,1.296c1.454,5.178,3.559,10.151,6.264,14.8c0.072,0.12,0.12,0.248,0.184,0.368  s0.128,0.136,0.176,0.216c18.003,30.372,57.218,40.399,87.59,22.396s40.399-57.218,22.396-87.59  c-1.881-3.174-4.034-6.179-6.434-8.982C368.56,310.407,368.544,310.407,368.496,310.311L368.496,310.311z M320,304.007  c2.826,0.016,5.645,0.284,8.424,0.8c0.208,0.04,0.424,0.064,0.624,0.096c2.678,0.526,5.306,1.278,7.856,2.248l0.672,0.248  c2.496,1,4.904,2.207,7.2,3.608c0.224,0.136,0.448,0.264,0.664,0.408c2.288,1.44,4.45,3.069,6.464,4.872l0.296,0.272  c-18.206,26.582-45.202,45.892-76.24,54.536c-10.586-24.256,0.495-52.501,24.751-63.087C306.794,305.353,313.363,303.99,320,304.007  z M320,400.007c-13.197-0.004-25.805-5.461-34.84-15.08c30.964-9.777,58.016-29.151,77.24-55.32  c12.398,23.402,3.477,52.423-19.925,64.821C335.552,398.096,327.835,400.011,320,400.007z" fill="#000000" data-original="#000000" style=""/>
<path xmlns="http://www.w3.org/2000/svg" d="M221.904,368.007c0.539-2.11,0.972-4.246,1.296-6.4c0.096-0.6,0.2-1.184,0.272-1.784c0.338-2.592,0.514-5.202,0.528-7.816  c-0.04-35.33-28.67-63.96-64-64c-2.266,0.005-4.531,0.128-6.784,0.368c-0.496,0.056-0.984,0.16-1.48,0.224  c-1.744,0.232-3.472,0.488-5.168,0.856c-0.56,0.12-1.104,0.288-1.656,0.424c-1.6,0.392-3.2,0.8-4.8,1.328  c-0.6,0.192-1.184,0.432-1.776,0.648c-1.48,0.536-2.944,1.096-4.368,1.736c-0.648,0.288-1.272,0.608-1.904,0.912  c-1.336,0.656-2.656,1.336-3.936,2.072c-0.656,0.384-1.304,0.8-1.952,1.192c-1.216,0.76-2.4,1.552-3.568,2.4  c-0.632,0.456-1.256,0.928-1.88,1.408c-1.144,0.896-2.248,1.832-3.328,2.792c-0.56,0.504-1.12,1-1.664,1.52  c-1.144,1.096-2.224,2.248-3.288,3.424c-0.312,0.352-0.656,0.656-0.968,1.008c-0.03,0.059-0.065,0.115-0.104,0.168  c-22.963,26.818-19.838,67.175,6.98,90.138s67.175,19.838,90.138-6.98c2.4-2.803,4.552-5.808,6.434-8.982  c0.048-0.08,0.128-0.136,0.176-0.216s0.112-0.248,0.184-0.368c2.705-4.649,4.81-9.622,6.264-14.8  C221.688,368.807,221.792,368.407,221.904,368.007L221.904,368.007z M208,352.007c-0.01,6.565-1.372,13.057-4,19.072  c-31.038-8.644-58.034-27.954-76.24-54.536l0.296-0.272c2.014-1.803,4.176-3.432,6.464-4.872c0.216-0.144,0.44-0.272,0.664-0.408  c2.296-1.401,4.704-2.608,7.2-3.608l0.672-0.248c2.55-0.97,5.178-1.722,7.856-2.248c0.2,0,0.416-0.056,0.624-0.096  c25.962-4.785,50.887,12.382,55.673,38.344C207.748,346.061,208.013,349.031,208,352.007L208,352.007z M160,400.007  c-26.483,0.015-47.964-21.442-47.979-47.925c-0.004-7.835,1.911-15.552,5.579-22.475c19.232,26.17,46.292,45.542,77.264,55.312  C185.825,394.547,173.206,400.008,160,400.007L160,400.007z" fill="#000000" data-original="#000000" style=""/>
<g xmlns="http://www.w3.org/2000/svg">
</g>
<g xmlns="http://www.w3.org/2000/svg">
</g>
<g xmlns="http://www.w3.org/2000/svg">
</g>
<g xmlns="http://www.w3.org/2000/svg">
</g>
<g xmlns="http://www.w3.org/2000/svg">
</g>
<g xmlns="http://www.w3.org/2000/svg">
</g>
<g xmlns="http://www.w3.org/2000/svg">
</g>
<g xmlns="http://www.w3.org/2000/svg">
</g>
<g xmlns="http://www.w3.org/2000/svg">
</g>
<g xmlns="http://www.w3.org/2000/svg">
</g>
<g xmlns="http://www.w3.org/2000/svg">
</g>
<g xmlns="http://www.w3.org/2000/svg">
</g>
<g xmlns="http://www.w3.org/2000/svg">
</g>
<g xmlns="http://www.w3.org/2000/svg">
</g>
<g xmlns="http://www.w3.org/2000/svg">
</g>
</g></svg>
